<svg width="96" height="24" viewBox="0 0 96 24" fill="none" xmlns="http://www.w3.org/2000/svg">
<path d="M10.792 22.9533C10.792 23.7579 9.921 24.2608 9.22418 23.8586L0.522461 18.835C0.199193 18.6483 0.000128034 18.303 0 17.9297V6.07129C0 5.698 0.199279 5.35278 0.522461 5.16602L9.22411 0.141631C9.92093 -0.260716 10.792 0.242167 10.792 1.0468V22.9533Z" fill="#A18E7C"/>
<path d="M11.8376 22.9533C11.8376 23.7579 12.7086 24.2608 13.4055 23.8586L22.1072 18.835C22.4304 18.6483 22.6295 18.303 22.6296 17.9297V6.07129C22.6296 5.698 22.4304 5.35278 22.1072 5.16602L13.4055 0.141631C12.7087 -0.260716 11.8376 0.242167 11.8376 1.0468V22.9533Z" fill="#EE7542"/>
<path d="M32.3458 18.2715V6.74889H39.6373V8.90624H34.7875V11.5319H39.0353V13.6558H34.7875V16.1141H39.7878V18.2715H32.3458ZM46.6641 8.90624H44.4399V12.1506H46.5972C47.5505 12.1506 48.0522 11.2643 48.0522 10.5284C48.0522 9.80932 47.6007 8.90624 46.6641 8.90624ZM41.9815 18.2715V6.74889H46.7143C49.3399 6.74889 50.5106 8.63867 50.5106 10.5284C50.5106 12.4517 49.3399 14.2913 46.7143 14.2913H44.4399V18.2715H41.9815ZM52.2541 6.74889H54.6958V18.2715H52.2541V6.74889ZM56.5123 8.95641V6.74889H65.2086V8.95641H62.098V18.2715H59.6229V8.95641H56.5123ZM67.0343 18.2715V6.74889H74.3258V8.90624H69.476V11.5319H73.7238V13.6558H69.476V16.1141H74.4763V18.2715H67.0343ZM85.9015 6.74889L82.2724 12.1339L86.2694 18.2715H83.3762L80.8175 14.0906L78.2588 18.2715H75.3823L79.3625 12.1339L75.7335 6.74889H78.6768L80.8175 10.194L82.9748 6.74889H85.9015ZM86.7912 8.95641V6.74889H95.4875V8.95641H92.3769V18.2715H89.9018V8.95641H86.7912Z" fill="#3A332A"/>
</svg>
